<?xml version="1.0" encoding="UTF-8"?>
<svg version="1.1" xmlns="http://www.w3.org/2000/svg" width="32" height="32">
<path d="M0 0 C10.56 0 21.12 0 32 0 C32 10.56 32 21.12 32 32 C21.44 32 10.88 32 0 32 C0 21.44 0 10.88 0 0 Z " fill="#7B828C" transform="translate(0,0)"/>
<path d="M0 0 C1.3540932 1.98600337 2.68457624 3.98817543 4 6 C5.11375 6.9590625 5.11375 6.9590625 6.25 7.9375 C8 10 8 10 8.5625 13.4375 C8 17 8 17 6.0625 19.9375 C2.47487333 22.35365674 0.34295081 22.7425028 -3.90625 22.48046875 C-6 22 -6 22 -8.5625 19.9375 C-10.47918721 16.02079136 -10.85259524 14.33402582 -10 10 C-3.5380117 0 -3.5380117 0 0 0 Z " fill="#0747B4" transform="translate(17,5)"/>
</svg>
